<svg width="179" height="60" viewBox="0 0 179 60" fill="none" xmlns="http://www.w3.org/2000/svg">
<path d="M15.9647 15.8124V31L12.5033 29.0221C6.35762 25.4901 2.54304 18.9205 2.54304 11.7859H0V29.1634C0 34.8146 3.24944 40.042 8.40618 42.5144L16.0353 46.1877V31L19.4967 32.9779C25.6424 36.5099 29.457 43.0795 29.457 50.2141H32V32.8366C32 27.1854 28.7506 21.9581 23.5938 19.4857L15.9647 15.8124Z" fill="url(#paint0_linear_8_7591)"/>
<path d="M55.3339 43C53.7125 43 52.4539 42.5733 51.5579 41.72C50.6619 40.8667 50.2139 39.672 50.2139 38.136V25.336C50.2139 23.8427 50.6405 22.68 51.4939 21.848C52.3685 21.016 53.5739 20.6 55.1099 20.6H62.5019C64.9765 20.6 66.8859 21.1227 68.2299 22.168C69.5739 23.2133 70.2459 24.728 70.2459 26.712C70.2459 27.6933 69.9579 28.6107 69.3819 29.464C68.8059 30.296 68.0592 30.9253 67.1419 31.352V31.384C68.1659 31.7893 68.9979 32.44 69.6379 33.336C70.2992 34.2107 70.6299 35.16 70.6299 36.184C70.6299 38.3173 69.9365 39.992 68.5499 41.208C67.1845 42.4027 65.2965 43 62.8859 43H55.3339ZM62.5019 29.848C63.5899 29.848 64.4325 29.5813 65.0299 29.048C65.6485 28.5147 65.9579 27.7467 65.9579 26.744C65.9579 25.7627 65.6699 25.0373 65.0939 24.568C64.5179 24.0987 63.6539 23.864 62.5019 23.864H55.7819C55.3552 23.864 55.0139 24.0027 54.7579 24.28C54.5232 24.5573 54.4059 24.9413 54.4059 25.432V29.848H62.5019ZM62.5019 39.736C65.0619 39.736 66.3419 38.5733 66.3419 36.248C66.3419 35.2453 66.0005 34.4667 65.3179 33.912C64.6565 33.3573 63.7179 33.08 62.5019 33.08H54.4059V38.168C54.4059 38.6587 54.5232 39.0427 54.7579 39.32C55.0139 39.5973 55.3552 39.736 55.7819 39.736H62.5019ZM76.3014 43.32C75.64 43.32 75.128 43.1493 74.7654 42.808C74.4027 42.4667 74.2214 41.9973 74.2214 41.4V20.632C74.2214 20.0347 74.4027 19.5653 74.7654 19.224C75.128 18.8827 75.64 18.712 76.3014 18.712C76.9414 18.712 77.4534 18.8827 77.8374 19.224C78.2214 19.5653 78.4134 20.0347 78.4134 20.632V41.4C78.4134 41.9973 78.2214 42.4667 77.8374 42.808C77.4534 43.1493 76.9414 43.32 76.3014 43.32ZM91.2036 43.32C89.3476 43.32 87.6943 42.9893 86.2436 42.328C84.8143 41.6453 83.6943 40.6853 82.8836 39.448C82.073 38.2107 81.6676 36.7813 81.6676 35.16C81.6676 33.5387 82.073 32.1093 82.8836 30.872C83.6943 29.6347 84.8143 28.6853 86.2436 28.024C87.6943 27.3413 89.3476 27 91.2036 27C93.0596 27 94.7023 27.3413 96.1316 28.024C97.5823 28.6853 98.713 29.6347 99.5236 30.872C100.334 32.1093 100.74 33.5387 100.74 35.16C100.74 36.7813 100.334 38.2107 99.5236 39.448C98.713 40.6853 97.5823 41.6453 96.1316 42.328C94.7023 42.9893 93.0596 43.32 91.2036 43.32ZM91.2036 39.992C92.8463 39.992 94.137 39.5653 95.0756 38.712C96.0356 37.8587 96.5156 36.6747 96.5156 35.16C96.5156 33.6453 96.0356 32.4613 95.0756 31.608C94.137 30.7547 92.8463 30.328 91.2036 30.328C89.561 30.328 88.2596 30.7547 87.2996 31.608C86.361 32.4613 85.8916 33.6453 85.8916 35.16C85.8916 36.6747 86.361 37.8587 87.2996 38.712C88.2596 39.5653 89.561 39.992 91.2036 39.992ZM112.067 43.32C109.208 43.32 106.989 42.6053 105.411 41.176C103.832 39.7253 103.043 37.7093 103.043 35.128C103.043 32.5467 103.832 30.552 105.411 29.144C106.989 27.7147 109.208 27 112.067 27C113.581 27 114.947 27.256 116.163 27.768C117.4 28.2587 118.371 28.9627 119.075 29.88C119.331 30.2 119.459 30.5413 119.459 30.904C119.459 31.4587 119.171 31.9493 118.595 32.376C118.339 32.568 118.019 32.664 117.635 32.664C117.336 32.664 117.027 32.6 116.707 32.472C116.387 32.3227 116.109 32.12 115.875 31.864C115.448 31.3733 114.893 31 114.211 30.744C113.549 30.4667 112.835 30.328 112.067 30.328C110.552 30.328 109.368 30.7547 108.515 31.608C107.683 32.44 107.267 33.6133 107.267 35.128C107.267 36.6853 107.683 37.8907 108.515 38.744C109.368 39.576 110.552 39.992 112.067 39.992C113.752 39.992 115.192 39.4267 116.387 38.296C116.984 37.6987 117.571 37.4 118.147 37.4C118.531 37.4 118.883 37.528 119.203 37.784C119.715 38.1893 119.971 38.68 119.971 39.256C119.971 39.6187 119.821 39.9707 119.523 40.312C118.541 41.3573 117.443 42.1253 116.227 42.616C115.032 43.0853 113.645 43.32 112.067 43.32ZM124.661 43.32C124 43.32 123.488 43.1493 123.125 42.808C122.763 42.4667 122.581 41.9973 122.581 41.4V20.632C122.581 20.0347 122.763 19.5653 123.125 19.224C123.488 18.8827 124 18.712 124.661 18.712C125.301 18.712 125.813 18.8827 126.197 19.224C126.581 19.5653 126.773 20.0347 126.773 20.632V33.368L136.117 27.352C136.587 27.0533 137.013 26.904 137.397 26.904C138.016 26.904 138.464 27.192 138.741 27.768C138.912 28.152 138.997 28.472 138.997 28.728C138.997 29.2827 138.667 29.7627 138.005 30.168L133.045 33.24C134.923 34.3707 136.32 35.5653 137.237 36.824C138.176 38.0827 138.752 39.5653 138.965 41.272C138.987 41.3573 138.997 41.4853 138.997 41.656C138.997 42.1893 138.837 42.6053 138.517 42.904C138.219 43.1813 137.792 43.32 137.237 43.32C136.661 43.32 136.181 43.2027 135.797 42.968C135.435 42.7333 135.2 42.392 135.093 41.944C134.773 40.7067 134.411 39.704 134.005 38.936C133.621 38.168 133.109 37.5067 132.469 36.952C131.851 36.376 131.008 35.7893 129.941 35.192L126.773 37.368V41.4C126.773 41.9973 126.581 42.4667 126.197 42.808C125.813 43.1493 125.301 43.32 124.661 43.32ZM143.469 36.856C142.829 36.856 142.327 36.7173 141.965 36.44C141.602 36.1413 141.421 35.736 141.421 35.224C141.421 34.712 141.591 34.3067 141.933 34.008C142.295 33.7093 142.807 33.56 143.469 33.56H153.005C153.666 33.56 154.167 33.7093 154.509 34.008C154.871 34.3067 155.053 34.712 155.053 35.224C155.053 35.736 154.871 36.1413 154.509 36.44C154.146 36.7173 153.645 36.856 153.005 36.856H143.469ZM167.432 43.32C166.792 43.32 166.28 43.1493 165.896 42.808C165.512 42.4667 165.32 41.9973 165.32 41.4V23.896H159.144C158.525 23.896 158.035 23.7573 157.672 23.48C157.331 23.1813 157.16 22.776 157.16 22.264C157.16 21.7307 157.331 21.3253 157.672 21.048C158.013 20.7493 158.504 20.6 159.144 20.6H175.752C176.392 20.6 176.883 20.7493 177.224 21.048C177.565 21.3253 177.736 21.7307 177.736 22.264C177.736 22.776 177.555 23.1813 177.192 23.48C176.851 23.7573 176.371 23.896 175.752 23.896H169.576V41.4C169.576 41.976 169.373 42.4453 168.968 42.808C168.584 43.1493 168.072 43.32 167.432 43.32Z" fill="#00308C"/>
<defs>
<linearGradient id="paint0_linear_8_7591" x1="16" y1="11.7859" x2="16" y2="50.2141" gradientUnits="userSpaceOnUse">
<stop stop-color="#00308C"/>
<stop offset="1" stop-color="#F46B34"/>
</linearGradient>
</defs>
</svg>
