<svg width="86" height="85" viewBox="0 0 86 85" fill="none" xmlns="http://www.w3.org/2000/svg">
<path d="M62.8333 39.6665C50.335 39.6665 40.1667 49.8348 40.1667 62.3331C40.1667 74.8315 50.335 84.9998 62.8333 84.9998C75.3316 84.9998 85.4998 74.8315 85.4998 62.3331C85.4998 49.8348 75.3316 39.6665 62.8333 39.6665ZM75.6118 55.2213L58.5838 72.2493L49.5667 63.2323C49.0142 62.6798 49.0142 61.7837 49.5667 61.2277C50.1192 60.6752 51.0153 60.6752 51.5713 61.2277L58.5838 68.2402L73.6108 53.2132C74.1633 52.6607 75.0594 52.6607 75.6153 53.2132C76.1678 53.7657 76.1678 54.6618 75.6153 55.2177L75.6118 55.2213Z" fill="black"/>
<path d="M9.00049 28.3345H14.6671V34.0011H9.00049V28.3345Z" fill="black"/>
<path d="M37.3337 28.3345H43.0004V34.0011H37.3337V28.3345Z" fill="black"/>
<path d="M23.1667 56.6665H28.8334V62.3332H23.1667V56.6665Z" fill="black"/>
<path d="M23.1667 28.3345H28.8334V34.0011H23.1667V28.3345Z" fill="black"/>
<path d="M9.00049 42.5H14.6671V48.1667H9.00049V42.5Z" fill="black"/>
<path d="M9.00049 56.6665H14.6671V62.3332H9.00049V56.6665Z" fill="black"/>
<path d="M51.5 28.3345H57.1666V34.0011H51.5V28.3345Z" fill="black"/>
<path d="M23.1667 42.5H28.8334V48.1667H23.1667V42.5Z" fill="black"/>
<path d="M11.8338 0.000244141C13.3992 0.000244141 14.6671 1.56569 14.6671 2.83357V8.50023C14.6671 10.0657 13.3992 11.3336 11.8338 11.3336C10.2684 11.3336 9.00049 9.76811 9.00049 8.50023V2.83357C9.00049 1.26813 10.2684 0.000244141 11.8338 0.000244141Z" fill="black"/>
<path d="M26.0001 0.000244141C27.5655 0.000244141 28.8334 1.56569 28.8334 2.83357V8.50023C28.8334 10.0657 27.5655 11.3336 26.0001 11.3336C24.4346 11.3336 23.1667 9.76811 23.1667 8.50023V2.83357C23.1667 1.26813 24.4346 0.000244141 26.0001 0.000244141Z" fill="black"/>
<path d="M40.1671 0.000244141C41.7325 0.000244141 43.0004 1.56569 43.0004 2.83357V8.50023C43.0004 10.0657 41.7325 11.3336 40.1671 11.3336C38.6016 11.3336 37.3337 9.76811 37.3337 8.50023V2.83357C37.3337 1.26813 38.6016 0.000244141 40.1671 0.000244141Z" fill="black"/>
<path d="M61.4163 5.6665H59.9997V8.49983C59.9997 11.6236 57.4568 14.1665 54.333 14.1665C51.2093 14.1665 48.6664 11.6236 48.6664 8.49983V5.6665H45.8331V8.49983C45.8331 11.6236 43.2902 14.1665 40.1664 14.1665C37.0427 14.1665 34.4998 11.6236 34.4998 8.49983V5.6665H31.6665V8.49983C31.6665 11.6236 29.1236 14.1665 25.9999 14.1665C22.8761 14.1665 20.3332 11.6236 20.3332 8.49983V5.6665H17.4999V8.49983C17.4999 11.6236 14.957 14.1665 11.8333 14.1665C8.70955 14.1665 6.16664 11.6236 6.16664 8.49983V5.6665H4.74998C2.4019 5.6665 0.5 7.56842 0.5 9.9165V19.8336H65.6663V9.9165C65.6663 7.56842 63.7644 5.6665 61.4163 5.6665Z" fill="black"/>
<path d="M54.3333 0.000244141C55.8988 0.000244141 57.1666 1.56569 57.1666 2.83357V8.50023C57.1666 10.0657 55.8988 11.3336 54.3333 11.3336C52.7679 11.3336 51.5 9.76811 51.5 8.50023V2.83357C51.5 1.26813 52.7679 0.000244141 54.3333 0.000244141Z" fill="black"/>
<path d="M43.0004 46.3214V42.5H37.3337V48.1667H41.6333C42.0583 47.5292 42.5187 46.9165 43.0004 46.3214Z" fill="black"/>
<path d="M37.5003 65.1668H34.5005V53.8335H38.8142C39.1578 52.8596 39.558 51.9139 40.0148 51.0002H34.5005V39.6669H45.8338V43.3643C46.7298 42.5604 47.6648 41.8024 48.6671 41.1331V39.6669H51.1852C54.6808 37.8677 58.6332 36.8335 62.834 36.8335C63.7938 36.8335 64.7359 36.8973 65.6673 37V22.6665H0.500977V66.5836C0.500977 68.9317 2.40288 70.8336 4.75095 70.8336H38.8142C38.1732 69.0273 37.7164 67.1361 37.4968 65.1669L37.5003 65.1668ZM48.6667 25.5002H60V36.8335H48.6667V25.5002ZM34.5002 25.5002H45.8334V36.8335H34.5002V25.5002ZM17.5002 65.1668H6.16698V53.8335H17.5002V65.1668ZM17.5002 51.0002H6.16698V39.6669H17.5002V51.0002ZM17.5002 36.8335H6.16698V25.5002H17.5002V36.8335ZM31.6668 65.1668H20.3336V53.8335H31.6668V65.1668ZM31.6668 51.0002H20.3336V39.6669H31.6668V51.0002ZM31.6668 36.8335H20.3336V25.5002H31.6668V36.8335Z" fill="black"/>
</svg>
